<?xml version="1.0" encoding="utf-8"?>
<!-- Generator: Adobe Illustrator 21.1.0, SVG Export Plug-In . SVG Version: 6.00 Build 0)  -->
<svg version="1.1" id="圖層_1" xmlns="http://www.w3.org/2000/svg" xmlns:xlink="http://www.w3.org/1999/xlink" x="0px" y="0px"
	 viewBox="0 0 148 144.2" style="enable-background:new 0 0 148 144.2;" xml:space="preserve">
<style type="text/css">
	.st0{fill:#D84F28;}
	.st1{fill:#E4642D;}
	.st2{fill:#FFFFFF;}
	.st3{fill:#1C6CAA;}
	.st4{fill:#37A0CE;}
	.st5{fill:#DBBD52;}
	.st6{fill:#F1D155;}
	.st7{fill:url(#SVGID_1_);}
	.st8{fill:#64BDDA;}
	.st9{fill:#05182F;}
	.st10{fill:#4BA2DB;}
	.st11{fill:#2C0404;}
	.st12{fill:#EA9841;}
	.st13{fill:#211430;}
	.st14{fill:#B78BBD;}
	.st15{fill:#E9C44D;}
	.st16{fill:#6A9AC2;}
</style>
<g>
	<path class="st11" d="M73.9,144.2c-16.3,0-32.5,0-48.8,0c-1.7,0-3.4-0.3-5.1-0.7c-3.3-0.8-6.3-2.2-9.1-4.2c-4.1-3-7.2-6.9-9.1-11.6
		c-1.2-3-1.9-6.2-1.9-9.4c0-30.9,0-61.8,0-92.7c0-6.1,2.2-11.5,6.1-16.2c2.3-2.8,5.1-5,8.4-6.7c2.7-1.3,5.5-2.1,8.4-2.6
		C24.7,0,26.5,0,28.2,0C59,0,89.9,0,120.7,0c0.3,0,0.6,0,0.9,0c7.6,0.2,14.1,2.9,19.3,8.4c2.9,3.1,4.9,6.7,6,10.8
		c0.7,2.4,1.1,4.9,1.1,7.4c0,30.4,0,60.8,0,91.2c0,8.2-3.2,15-9.4,20.3c-2.9,2.5-6.3,4.3-10.1,5.2c-2,0.5-4.1,0.8-6.2,0.8
		C106.2,144.2,90.1,144.2,73.9,144.2z"/>
	<path class="st12" d="M91.1,101.6c-0.5,0-0.8,0.1-1.1,0.1c-3.9,0-7.9,0-11.8,0c-0.1,0-0.3,0-0.4,0c-0.5,0-0.8-0.2-0.9-0.6
		c-0.3-1-0.7-1.9-1-2.9c-1.3-3.6-2.5-7.3-3.8-10.9c-0.3-0.8-0.3-0.8-1.2-0.8c-5.8,0-11.6,0-17.4,0c-1.4,0-2.8,0-4.2,0
		c-0.7,0-0.7,0-1,0.7c-0.6,1.8-1.2,3.6-1.8,5.4c-0.7,2.1-1.4,4.1-2,6.2c-0.2,0.6-0.4,1.3-0.6,2c-0.3,0.8-0.5,1-1.3,1
		c-3.6,0-7.3,0-10.9,0c-0.2,0-0.3,0-0.5,0c-0.4-0.1-0.5-0.2-0.5-0.6c0-0.3,0.1-0.5,0.2-0.8c1-2.9,2-5.7,3-8.6
		c0.6-1.8,1.3-3.6,1.9-5.4c0.7-2,1.4-4.1,2.1-6.1c0.6-1.6,1.1-3.3,1.7-4.9c0.8-2.4,1.6-4.7,2.5-7.1c0.8-2.2,1.5-4.3,2.3-6.5
		c0.6-1.8,1.2-3.5,1.8-5.3c1.2-3.4,2.4-6.8,3.5-10.2c0.6-1.7,1.1-3.3,1.5-5c0.3-1,0.3-2.1,0.4-3.1c0.1-0.7,0.1-0.8,0.8-0.8
		c5,0,10,0,15,0c0.7,0,0.8,0.1,1.1,0.7c0.8,2.3,1.6,4.6,2.4,6.9c0.7,2,1.4,4.1,2.2,6.1c0.9,2.6,1.9,5.2,2.8,7.9
		c1,2.7,1.9,5.5,2.9,8.2c0.6,1.7,1.2,3.4,1.8,5.2c0.7,2.1,1.5,4.2,2.2,6.2c0.9,2.6,1.8,5.2,2.7,7.7c1.1,3.1,2.2,6.2,3.2,9.2
		c0.6,1.6,1.2,3.1,1.7,4.7C90.9,100.6,90.9,101,91.1,101.6z M60.2,74.4c2.1,0,4.1,0,6.2,0c0.4,0,0.7,0,1.1,0c0.7,0,0.8-0.2,0.7-0.8
		c-0.3-1-0.6-2-0.9-3c-0.4-1.3-0.8-2.6-1.3-3.9c-0.4-1.4-0.8-2.8-1.3-4.1c-0.7-2.1-1.4-4.1-2-6.2C62,54.2,61.4,52,60.8,50
		c-0.1-0.5-0.3-0.9-0.4-1.4c0-0.1-0.3-0.2-0.4-0.2c-0.1,0-0.2,0.2-0.2,0.3c-0.1,0.3-0.2,0.6-0.2,0.9c-0.4,2.1-1,4.1-1.6,6.1
		c-0.4,1.5-0.9,2.9-1.3,4.4c-0.4,1.4-0.9,2.7-1.3,4c-0.5,1.6-1,3.2-1.5,4.9c-0.5,1.5-1,3-1.5,4.6c-0.2,0.6-0.1,0.9,0.6,0.9
		c0.2,0,0.4,0,0.6,0C55.7,74.4,58,74.4,60.2,74.4z"/>
	<path class="st12" d="M111.3,77.4c0,7.7,0,15.4,0,23.1c0,1.4,0,1.4-1.4,1.4c-3.5,0-7,0-10.5,0c-0.2,0-0.4,0-0.6,0
		c-0.6,0-0.8-0.3-0.8-0.8c0-0.3,0-0.6,0-0.8c0-15.3,0-30.6,0-45.9c0-1.4,0-1.4,1.3-1.4c3.6,0,7.2,0,10.7,0c0.2,0,0.4,0,0.6,0
		c0.4,0,0.6,0.2,0.6,0.6c0,0.3,0,0.6,0,0.8C111.3,62,111.3,69.7,111.3,77.4z"/>
	<path class="st12" d="M112.1,39.7c0.1,2.3-0.6,4.2-2.2,5.8c-1.1,1.1-2.5,1.7-4.1,1.8c-0.8,0-1.6,0.1-2.3,0
		c-1.3-0.1-2.5-0.6-3.5-1.4c-1.4-1.1-2.2-2.6-2.5-4.4c-0.3-1.7-0.2-3.3,0.5-4.9c0.9-2,2.4-3.1,4.4-3.8c1.3-0.4,2.6-0.5,3.8-0.3
		c2.4,0.3,4.2,1.6,5.3,3.9C112,37.4,112.2,38.5,112.1,39.7z"/>
	<path class="st11" d="M60.2,74.4c-2.2,0-4.4,0-6.6,0c-0.2,0-0.4,0-0.6,0c-0.6,0-0.8-0.3-0.6-0.9c0.5-1.5,1-3,1.5-4.6
		c0.5-1.6,1-3.2,1.5-4.9c0.4-1.4,0.9-2.7,1.3-4c0.4-1.5,0.9-2.9,1.3-4.4c0.6-2,1.2-4,1.6-6.1c0.1-0.3,0.1-0.6,0.2-0.9
		c0-0.1,0.2-0.3,0.2-0.3c0.2,0,0.4,0.1,0.4,0.2c0.2,0.4,0.3,0.9,0.4,1.4c0.6,2.1,1.1,4.2,1.8,6.3c0.6,2.1,1.3,4.1,2,6.2
		c0.4,1.4,0.8,2.8,1.3,4.1c0.4,1.3,0.8,2.6,1.3,3.9c0.3,1,0.7,2,0.9,3c0.2,0.7,0,0.8-0.7,0.8c-0.4,0-0.7,0-1.1,0
		C64.3,74.4,62.2,74.4,60.2,74.4z"/>
</g>
</svg>
