<?xml version="1.0" encoding="utf-8"?>
<!-- Generator: Adobe Illustrator 21.1.0, SVG Export Plug-In . SVG Version: 6.00 Build 0)  -->
<svg version="1.1" id="圖層_1" xmlns="http://www.w3.org/2000/svg" xmlns:xlink="http://www.w3.org/1999/xlink" x="0px" y="0px"
	 viewBox="0 0 148.5 144.8" style="enable-background:new 0 0 148.5 144.8;" xml:space="preserve">
<style type="text/css">
	.st0{fill:#D84F28;}
	.st1{fill:#E4642D;}
	.st2{fill:#FFFFFF;}
	.st3{fill:#1C6CAA;}
	.st4{fill:#37A0CE;}
	.st5{fill:#DBBD52;}
	.st6{fill:#F1D155;}
	.st7{fill:url(#SVGID_1_);}
	.st8{fill:#64BDDA;}
	.st9{fill:#05182F;}
	.st10{fill:#4BA2DB;}
	.st11{fill:#2C0404;}
	.st12{fill:#EA9841;}
	.st13{fill:#211430;}
	.st14{fill:#B78BBD;}
	.st15{fill:#E9C44D;}
	.st16{fill:#6A9AC2;}
</style>
<g>
	<path class="st15" d="M74.2,144.7c-15.9,0-31.9,0.1-47.8,0c-9.9,0-17.4-4.4-22.7-12.7c-2.5-4.1-3.7-8.6-3.7-13.4
		C0,87.8,0,57,0,26.2c0-13.4,9.9-24.4,23.1-26C24.3,0,25.5,0,26.7,0c31.7,0,63.3,0,95,0c13.1,0,23.5,8.3,26.2,21.1
		c0.4,1.7,0.5,3.5,0.5,5.2c0,30.8,0,61.5,0,92.3c0,14.5-11.6,26.1-26.1,26.1C106.3,144.8,90.3,144.7,74.2,144.7
		C74.2,144.7,74.2,144.7,74.2,144.7z"/>
	<g>
		<path class="st16" d="M74.3,110.8c-13,0-26,0-39,0c-6.8,0-8.9-2-8.9-8.8c0-15.5,0-31-0.1-46.5c0-4.2,1.1-7.3,5.5-8.4
			c0.6-0.1,1.5-0.5,1.5-0.9c0.7-5.5,4.9-4.2,8.2-4.1c2.9,0,4.7-0.8,5.5-3.7c0.9-3.3,3.3-4.5,6.7-4.4c4,0.1,8.1,0.2,12.1,0
			c4.9-0.3,8.8,0.4,10.6,5.9c0.3,1.1,2.9,1.8,4.5,2c3.2,0.5,7.4-1.4,8.4,4.1c0.1,0.5,2.4,0.9,3.8,0.9c6.8,0.1,13.6,0,20.4,0
			c6.8,0,8.7,1.9,8.7,8.5c0,15.6,0,31.3,0,46.9c0,6.4-1.9,8.3-8.4,8.3C100.6,110.8,87.4,110.8,74.3,110.8z M60.8,99
			c12.7,0.2,23-9.6,23.2-22.1c0.2-12.4-10-23.1-22.3-23.3c-12.5-0.2-23.1,10.2-23.2,22.8C38.4,88.7,48.5,98.9,60.8,99z"/>
		<path class="st15" d="M60.8,99c-12.3-0.2-22.4-10.3-22.3-22.6c0.1-12.6,10.7-23.1,23.2-22.8C74,53.8,84.2,64.5,84,76.9
			C83.8,89.4,73.5,99.2,60.8,99z M61.4,59.8C52,59.7,44.4,67,44.5,76.3c0,9.4,7.4,16.9,16.6,17c9.1,0.1,16.9-7.5,17-16.7
			C78.3,67.4,70.7,59.8,61.4,59.8z"/>
		<path class="st16" d="M61.4,59.8c9.4,0.1,16.9,7.7,16.7,16.9c-0.2,9.2-7.9,16.9-17,16.7c-9.3-0.1-16.6-7.6-16.6-17
			C44.4,67,52,59.7,61.4,59.8z M59.1,63.5c-4.8,0.1-11,6.2-10.9,10.4c0,0.1,0,0.2,0,0.3c0.3,1.2,1.8,1.7,2.9,1
			c0.3-0.2,0.4-0.4,0.5-0.6c1.4-3.9,3.8-6.5,7.8-7.8c0.1,0,0.2-0.1,0.4-0.2C60.7,65.6,60.2,64.1,59.1,63.5L59.1,63.5z"/>
		<path class="st15" d="M59.5,63.7L59.5,63.7c0.8,0.4,1.1,1.3,0.8,2.1c-0.2,0.5-0.5,0.9-0.8,1c-4,1.2-6.5,3.8-7.8,7.8
			c-0.1,0.4-0.5,0.6-1,0.9c-0.8,0.4-1.8,0.1-2.2-0.7c-0.2-0.3-0.3-0.6-0.3-0.9c-0.1-4.1,5.6-9.9,10.4-10.4
			C58.9,63.5,59.2,63.6,59.5,63.7z"/>
		<rect x="56.5" y="36.5" class="st15" width="10.6" height="2.7"/>
		<rect x="101.5" y="43.6" class="st16" width="9.1" height="2.9"/>
	</g>
	<path class="st15" d="M98.5,99.9h-1.3c-0.3,0-0.5-0.2-0.5-0.5V55c0-0.3,0.2-0.5,0.5-0.5h1.3c0.3,0,0.5,0.2,0.5,0.5v44.5
		C99,99.7,98.8,99.9,98.5,99.9z"/>
</g>
</svg>
