<?xml version="1.0" encoding="utf-8"?>
<!-- Generator: Adobe Illustrator 21.1.0, SVG Export Plug-In . SVG Version: 6.00 Build 0)  -->
<svg version="1.1" id="圖層_1" xmlns="http://www.w3.org/2000/svg" xmlns:xlink="http://www.w3.org/1999/xlink" x="0px" y="0px"
	 viewBox="0 0 147.9 144.7" style="enable-background:new 0 0 147.9 144.7;" xml:space="preserve">
<style type="text/css">
	.st0{fill:#D84F28;}
	.st1{fill:#E4642D;}
	.st2{fill:#FFFFFF;}
	.st3{fill:#1C6CAA;}
	.st4{fill:#37A0CE;}
	.st5{fill:#DBBD52;}
	.st6{fill:#F1D155;}
	.st7{fill:url(#SVGID_1_);}
	.st8{fill:#64BDDA;}
	.st9{fill:#05182F;}
	.st10{fill:#4BA2DB;}
	.st11{fill:#2C0404;}
	.st12{fill:#EA9841;}
	.st13{fill:#211430;}
	.st14{fill:#B78BBD;}
	.st15{fill:#E9C44D;}
	.st16{fill:#6A9AC2;}
</style>
<g>
	<path class="st3" d="M15.8,0.2c3.3,0,6.3,0,9.3,0c38.3,0,76.6,0,114.9,0c3.6,0,3.5,0,3.2,3.6c-1.3,14.3-2.5,28.5-3.8,42.8
		c-1.2,13.5-2.5,27.1-3.7,40.6c-1.1,12-2.2,23.9-3.1,35.9c-0.6,7.2-0.4,7.3-7.3,9.2c-14.7,4.2-29.5,8.2-44.3,12.3
		c-1,0.3-2.1,0.2-3.1,0c-16.2-4.5-32.4-9-48.6-13.5c-1.4-0.4-2-0.9-2.1-2.4c-0.9-10.8-1.9-21.5-2.9-32.3
		c-1.4-15.5-2.8-31.1-4.2-46.6c-0.9-10.3-1.8-20.5-2.7-30.8c-0.5-5.6-1-11.1-1.5-16.7C15.9,1.8,15.8,1.2,15.8,0.2z"/>
	<polygon class="st4" points="78.9,11.5 130.8,11.5 121.4,123.1 78.9,133.7 	"/>
	<path class="st2" d="M60.6,25.5c18.8,0,37.7,0,56.5,0c2.8,0,2.9,0,2.6,2.7c-0.8,8.9-1.6,17.8-2.4,26.7c-0.6,7-1.2,14-1.9,20.9
		c-0.9,10-1.7,19.9-2.7,29.9c-0.1,0.7-1,1.8-1.7,2c-9.9,2.9-19.8,5.6-29.8,8.3c-0.8,0.2-1.7,0.2-2.5,0c-10-2.7-20-5.6-30-8.3
		c-1.2-0.3-2-0.8-2.1-2.2c-0.6-7.1-1.2-14.3-1.8-21.4c-0.1-1.6,0.3-2.2,1.9-2.1c4,0.1,8,0.1,12,0c1.5,0,2,0.5,2.1,2
		c0.2,3.1,0.4,6.1,0.9,9.2c0.1,0.8,0.9,1.8,1.6,2c4.9,1.5,9.9,2.8,14.9,4.1c0.6,0.2,1.3,0.1,1.9,0c5-1.3,9.9-2.8,14.9-4
		c1.6-0.4,2.3-1.2,2.4-2.8c0.5-5.3,0.9-10.7,1.4-16c0.2-1.8-0.7-2.2-2.3-2.2c-10.6,0-21.2-0.2-31.8-0.1c-2.2,0-3.1-0.7-3.2-2.8
		c-0.2-3.6-0.6-7.3-0.9-10.9c-0.2-1.6,0.4-2.5,2.1-2.3c0.1,0,0.3,0,0.4,0c11.5-0.1,23-0.3,34.6-0.4c1.9,0,2.8-0.4,2.9-2.6
		c0.2-3.7,0.7-7.4,1.1-11.1c0.2-1.4-0.2-2.2-1.8-2.1c-0.2,0-0.4,0-0.6,0c-18.5-0.1-36.9-0.3-55.4-0.4c-2.2,0-3.2-0.6-3.3-2.9
		c-0.2-3.6-0.6-7.1-0.9-10.7c-0.2-1.8,0.4-2.4,2.2-2.4c6.2,0.1,12.5,0,18.7,0C60.6,25.6,60.6,25.6,60.6,25.5z"/>
</g>
</svg>
