<?xml version="1.0" encoding="utf-8"?>
<!-- Generator: Adobe Illustrator 21.1.0, SVG Export Plug-In . SVG Version: 6.00 Build 0)  -->
<svg version="1.1" id="圖層_1" xmlns="http://www.w3.org/2000/svg" xmlns:xlink="http://www.w3.org/1999/xlink" x="0px" y="0px"
	 viewBox="0 0 147.1 144.7" style="enable-background:new 0 0 147.1 144.7;" xml:space="preserve">
<style type="text/css">
	.st0{fill:#D84F28;}
	.st1{fill:#E4642D;}
	.st2{fill:#FFFFFF;}
	.st3{fill:#1C6CAA;}
	.st4{fill:#37A0CE;}
	.st5{fill:#DBBD52;}
	.st6{fill:#F1D155;}
	.st7{fill:url(#SVGID_1_);}
	.st8{fill:#64BDDA;}
	.st9{fill:#05182F;}
	.st10{fill:#4BA2DB;}
	.st11{fill:#2C0404;}
	.st12{fill:#EA9841;}
	.st13{fill:#211430;}
	.st14{fill:#B78BBD;}
	.st15{fill:#E9C44D;}
	.st16{fill:#6A9AC2;}
</style>
<g>
	<path class="st0" d="M8.8,0c42.9,0,85.5,0,128.4,0c-0.3,3.7-0.5,7.3-0.8,10.9c-1.1,12.6-2.2,25.2-3.4,37.8
		c-1.1,12-2.2,23.9-3.3,35.9c-1.2,13.8-2.4,27.5-3.6,41.3c-0.4,5.1-0.3,5.1-5.1,6.5c-15.6,4.4-31.2,8.7-46.8,12.9
		c-0.8,0.2-1.9,0.2-2.7,0c-16.4-4.5-32.8-9.1-49.3-13.7c-1.4-0.4-2-0.9-2.1-2.5c-1.2-14.2-2.5-28.4-3.8-42.6
		c-1.3-14.1-2.6-28.2-3.8-42.3c-1.3-14.3-2.5-28.7-3.8-43C8.6,0.9,8.7,0.6,8.8,0z"/>
	<polygon class="st1" points="70.9,11.3 123.1,11.3 113.5,123.4 70.9,134.1 	"/>
	<path class="st2" d="M50,42.7c0.3,4,0.6,7.6,1,11.3c0.2,1.7-0.1,4.1,0.9,4.9c1.1,0.9,3.4,0.4,5.2,0.4c16.6,0,33.3,0,49.9,0
		c0.9,0,1.8,0,3.1,0c-0.2,2.6-0.3,4.8-0.5,7.1c-1.2,13.3-2.4,26.7-3.5,40c-0.1,1.6-0.7,2.5-2.4,3c-9.6,2.5-19.1,5.2-28.7,7.8
		c-1.2,0.3-2.6,0.3-3.8,0c-9.7-2.6-19.4-5.3-29.1-7.9c-1.4-0.4-2.1-1-2.2-2.5c-0.6-6.9-1.2-13.8-1.8-20.6c-0.2-1.9,0.2-2.7,2.4-2.6
		c3.9,0.2,7.8,0.1,11.7,0c1.2,0,1.8,0.3,1.9,1.7c0.2,3.2,0.6,6.3,0.8,9.5c0.1,1.3,0.6,1.9,1.8,2.2c5,1.3,10,2.7,15,3.9
		c0.8,0.2,1.7,0.2,2.5,0c5-1.3,10-2.7,15-4c1.4-0.4,1.9-1.1,2-2.6c0.4-5.6,0.8-11.2,1.5-16.8c0.2-2.1-0.7-2.2-2.3-2.2
		c-16.6,0-33.3,0-49.9,0c-3.5,0-3.4,0-3.7-3.5c-1.2-14-2.5-28.1-3.7-42.1c-0.1-0.8,0-1.5,0-2.5c26.7,0,53.3,0,80.1,0
		c-0.3,4-0.6,7.8-1,11.7c-0.4,4.1-0.5,4.1-4.6,4.1c-18.1,0-36.1,0-54.2,0C52.3,42.7,51.4,42.7,50,42.7z"/>
</g>
</svg>
