<?xml version="1.0" encoding="utf-8"?>
<!-- Generator: Adobe Illustrator 21.1.0, SVG Export Plug-In . SVG Version: 6.00 Build 0)  -->
<svg version="1.1" id="圖層_1" xmlns="http://www.w3.org/2000/svg" xmlns:xlink="http://www.w3.org/1999/xlink" x="0px" y="0px"
	 viewBox="0 0 148.9 144.4" style="enable-background:new 0 0 148.9 144.4;" xml:space="preserve">
<style type="text/css">
	.st0{fill:#D84F28;}
	.st1{fill:#E4642D;}
	.st2{fill:#FFFFFF;}
	.st3{fill:#1C6CAA;}
	.st4{fill:#37A0CE;}
	.st5{fill:#DBBD52;}
	.st6{fill:#F1D155;}
	.st7{fill:url(#SVGID_1_);}
	.st8{fill:#64BDDA;}
	.st9{fill:#05182F;}
	.st10{fill:#4BA2DB;}
	.st11{fill:#2C0404;}
	.st12{fill:#EA9841;}
	.st13{fill:#211430;}
	.st14{fill:#B78BBD;}
	.st15{fill:#E9C44D;}
	.st16{fill:#6A9AC2;}
</style>
<g>
	<path class="st5" d="M10.7,0.2c1.4,0,2.6,0,3.9,0c35.9,0,71.9,0,107.8,0c4.7,0,9.3,0,14,0c1.5,0,1.8,0.5,1.6,1.9
		C137,14,136,25.9,135,37.7c-0.9,10.3-1.8,20.5-2.7,30.8c-0.9,10.4-1.8,20.7-2.7,31.1c-0.8,9.7-1.7,19.3-2.5,29
		c-0.1,1.5-1.2,1.6-2.2,1.9c-7,2-14,3.9-20.9,5.8c-9.3,2.6-18.5,5.2-27.8,7.8c-1.1,0.3-2.4,0.3-3.5,0c-16.2-4.5-32.3-9-48.4-13.5
		c-1.9-0.5-2.5-1.4-2.7-3.3c-0.8-10.6-1.8-21.1-2.7-31.7c-0.9-10.4-1.8-20.9-2.6-31.3C15,51.3,13.8,38.2,12.7,25
		c-0.6-7.4-1.3-14.8-1.9-22.2C10.7,2.1,10.7,1.3,10.7,0.2z"/>
	<polygon class="st6" points="75.5,11.3 128,11.3 118.4,124.2 75.5,135 	"/>
	<path class="st2" d="M79.2,116.5c0-1.3,0-2.5,0-3.6c0-3,0.1-6,0-9c-0.1-1.6,0.6-2.3,2.1-2.7c5.6-1.5,11.1-3.1,16.6-4.5
		c1.5-0.4,2.2-0.9,2.3-2.6c0.4-4.7,1-9.4,1.5-14.1c0.1-0.5,0-1,0-1.9c-3.2,0.5-6.3,0.9-9.3,1.4c-3.8,0.6-7.7,1.2-11.5,1.9
		c-1.4,0.2-1.8-0.3-1.8-1.6c0-17.1,0-34.1,0-51.2c0-1.4,0.6-1.8,1.9-1.8c12.1,0,24.2,0.1,36.3,0c1.4,0,2,0.5,1.8,1.9
		c-0.4,3.7-0.7,7.4-1.1,11.1c-0.1,0.5-1,1.1-1.6,1.1c-3.3,0.1-6.6,0.1-9.9,0.1c-3.8,0-7.7,0-11.5,0c-1.3,0-1.8,0.5-1.8,1.8
		c0,6.9,0,13.8,0,20.7c0,1.5,0.4,2,2,1.7c6.4-1.1,12.8-1.9,19.2-3c1.6-0.3,2,0.3,1.9,1.8c-0.5,5.4-1,10.7-1.5,16.1
		c-0.6,6.3-1.1,12.5-1.7,18.8c-0.2,2.3-0.6,4.6-0.7,7c-0.1,1.4-0.7,2-2,2.3c-7.5,2-14.9,4.1-22.3,6.2c-2.3,0.6-4.6,1.3-6.9,1.9
		C80.7,116.2,80.1,116.3,79.2,116.5z"/>
	<path class="st2" d="M69.3,116.5c-5.4-1.5-10.5-2.8-15.7-4.2c-7-1.9-14-3.8-21-5.7c-1.4-0.4-1.9-1-1.9-2.5c0.1-3.6,0-7.2,0-10.8
		c0-0.6,0.1-1.1,0.2-2c8.1,2.2,16,4.3,24.1,6.5c0.1-0.8,0.2-1.4,0.2-2.1c0-22.1,0-44.2,0-66.3c0-2.8,0-2.8,2.8-2.8
		c3.2,0,6.3,0,9.5-0.1c1.4,0,1.9,0.4,1.9,1.8c0,8.2,0,16.4,0,24.6c0,7-0.2,14-0.2,21c0,7.1,0.1,14.1,0.1,21.2c0,6.5,0,13,0,19.6
		C69.5,115.3,69.4,115.8,69.3,116.5z"/>
</g>
</svg>
