<?xml version="1.0" encoding="utf-8"?>
<!-- Generator: Adobe Illustrator 21.1.0, SVG Export Plug-In . SVG Version: 6.00 Build 0)  -->
<svg version="1.1" id="圖層_1" xmlns="http://www.w3.org/2000/svg" xmlns:xlink="http://www.w3.org/1999/xlink" x="0px" y="0px"
	 viewBox="0 0 149.1 145.4" style="enable-background:new 0 0 149.1 145.4;" xml:space="preserve">
<style type="text/css">
	.st0{fill:#D84F28;}
	.st1{fill:#E4642D;}
	.st2{fill:#FFFFFF;}
	.st3{fill:#1C6CAA;}
	.st4{fill:#37A0CE;}
	.st5{fill:#DBBD52;}
	.st6{fill:#F1D155;}
	.st7{fill:url(#SVGID_1_);}
	.st8{fill:#64BDDA;}
	.st9{fill:#05182F;}
	.st10{fill:#4BA2DB;}
	.st11{fill:#2C0404;}
	.st12{fill:#EA9841;}
	.st13{fill:#211430;}
	.st14{fill:#B78BBD;}
	.st15{fill:#E9C44D;}
	.st16{fill:#6A9AC2;}
</style>
<g>
	<path class="st13" d="M74.6,145.4c-16,0-32,0.1-48,0c-9.9,0-17.5-4.4-22.8-12.8C1.2,128.5,0,124,0,119.1c0-30.9,0-61.9,0-92.8
		C0,12.8,9.9,1.8,23.2,0.2C24.4,0,25.6,0,26.9,0c31.8,0,63.6,0,95.4,0c13.2,0,23.6,8.4,26.4,21.2c0.4,1.7,0.5,3.5,0.5,5.2
		c0,30.9,0,61.8,0,92.7c0,14.6-11.6,26.2-26.2,26.2C106.8,145.4,90.7,145.4,74.6,145.4C74.6,145.4,74.6,145.4,74.6,145.4z"/>
	<path class="st14" d="M33.6,69.9c0-10.3,0-20.6,0-30.9c0-1.3,0.3-1.7,1.7-1.7c7.1,0,14.3-0.2,21.4-0.2c3.8,0,7.4,0.8,10.9,2.3
		c7.3,3.1,11.7,8.6,12.7,16.5c0.9,7.2-0.4,13.9-5.8,19.3c-3.9,3.9-8.8,5.8-14.1,6.3c-3.8,0.4-7.6,0.4-11.4,0.4
		C47,82,47,81.8,47,83.8c0,5.8,0,11.5,0,17.3c0,1.3-0.4,1.7-1.7,1.7c-3.3-0.1-6.7,0-10,0c-1.7,0-1.7,0-1.7-1.7
		C33.6,90.6,33.6,80.3,33.6,69.9C33.6,69.9,33.6,69.9,33.6,69.9z M47,59.8C47,59.8,47,59.8,47,59.8c0,3.1,0,6.2,0,9.3
		c0,0.6,0,1.2,0.8,1.2c4.4,0.1,8.8,0.3,13-1.4c2.1-0.8,3.9-2.1,5-4.2c3.3-6.3,0.1-13.7-6.9-15c-3.6-0.7-7.3-0.4-11-0.6
		c-0.9,0-1,0.6-1,1.3C47,53.6,47,56.7,47,59.8z"/>
	<path class="st13" d="M47,59.8c0-3.1,0-6.2,0-9.3c0-0.7,0.1-1.3,1-1.3c3.7,0.2,7.4-0.1,11,0.6c7,1.3,10.2,8.6,6.9,15
		c-1.1,2-2.9,3.3-5,4.2c-4.2,1.7-8.6,1.5-13,1.4c-0.9,0-0.8-0.6-0.8-1.2C47,66,47,62.9,47,59.8C47,59.8,47,59.8,47,59.8z"/>
	<path class="st14" d="M120.2,52.4c0,3.5,0,6.7,0,10c-2.9,0.3-5.8,0.7-8.6,0.8c-3.2,0-4,1.5-3.9,4.5c0.2,11.2,0,22.3,0.1,33.5
		c0,2.7-0.5,3.7-3.5,3.7c-8-0.2-8,0-8-8.2c-0.1-12.5-0.2-25-0.2-37.6c0-0.9,0.7-2.4,1.4-2.6C104.6,53.7,112.1,52.3,120.2,52.4z"/>
</g>
</svg>
