<?xml version="1.0" encoding="utf-8"?>
<!-- Generator: Adobe Illustrator 21.1.0, SVG Export Plug-In . SVG Version: 6.00 Build 0)  -->
<svg version="1.1" id="圖層_1" xmlns="http://www.w3.org/2000/svg" xmlns:xlink="http://www.w3.org/1999/xlink" x="0px" y="0px"
	 viewBox="0 0 148.5 144.8" style="enable-background:new 0 0 148.5 144.8;" xml:space="preserve">
<style type="text/css">
	.st0{fill:#D84F28;}
	.st1{fill:#E4642D;}
	.st2{fill:#FFFFFF;}
	.st3{fill:#1C6CAA;}
	.st4{fill:#37A0CE;}
	.st5{fill:#DBBD52;}
	.st6{fill:#F1D155;}
	.st7{fill:url(#SVGID_1_);}
	.st8{fill:#64BDDA;}
	.st9{fill:#05182F;}
	.st10{fill:#4BA2DB;}
	.st11{fill:#2C0404;}
	.st12{fill:#EA9841;}
	.st13{fill:#211430;}
	.st14{fill:#B78BBD;}
	.st15{fill:#E9C44D;}
	.st16{fill:#6A9AC2;}
</style>
<g>
	<path class="st9" d="M74.2,144.8c-15.9,0-31.9,0.1-47.8,0c-9.9,0-17.5-4.4-22.7-12.7C1.2,128,0,123.5,0,118.6C0,87.8,0,57,0,26.2
		c0-13.4,9.9-24.4,23.1-26C24.3,0,25.5,0,26.7,0c31.7,0,63.3,0,95,0c13.1,0,23.5,8.3,26.2,21.1c0.4,1.7,0.5,3.5,0.5,5.2
		c0,30.8,0,61.5,0,92.3c0,14.5-11.6,26.1-26.1,26.1C106.3,144.8,90.3,144.8,74.2,144.8C74.2,144.8,74.2,144.8,74.2,144.8z"/>
	<path class="st10" d="M33.4,69.6c0-10.3,0-20.5,0-30.8c0-1.3,0.3-1.7,1.7-1.7c7.1,0,14.2-0.2,21.4-0.2c3.7,0,7.4,0.8,10.8,2.3
		c7.2,3.1,11.6,8.5,12.6,16.4c0.9,7.2-0.4,13.8-5.8,19.2c-3.9,3.9-8.8,5.7-14.1,6.3c-3.8,0.4-7.6,0.4-11.4,0.4
		c-1.8,0-1.8-0.1-1.8,1.8c0,5.7,0,11.5,0,17.2c0,1.3-0.4,1.7-1.7,1.7c-3.3-0.1-6.6,0-9.9,0c-1.7,0-1.7,0-1.7-1.7
		C33.4,90.2,33.4,79.9,33.4,69.6C33.4,69.6,33.4,69.6,33.4,69.6z M46.8,59.5C46.8,59.5,46.8,59.5,46.8,59.5c0,3.1,0,6.2,0,9.3
		c0,0.6,0,1.2,0.8,1.2c4.4,0.1,8.8,0.3,13-1.4c2.1-0.8,3.9-2.1,4.9-4.2c3.3-6.3,0.1-13.6-6.9-14.9c-3.6-0.7-7.3-0.4-11-0.6
		c-0.9,0-1,0.6-1,1.3C46.8,53.3,46.8,56.4,46.8,59.5z"/>
	<path class="st10" d="M87,88.6c3.1,1.1,6,2.3,8.9,3c2.9,0.6,5.8,0.6,8.8,0.7c0.9,0,1.8-0.3,2.6-0.6c2.5-0.9,3-3.6,0.8-5.1
		c-1.5-1.1-3.4-1.8-5.1-2.7c-3-1.5-6.2-2.7-9-4.4c-4.9-2.9-7.5-7.3-6.9-13.1c0.6-6.2,4-10.3,9.7-12.6c4.7-2,9.7-1.8,14.7-1.4
		c2.3,0.2,4.6,0.8,6.8,1.3c1.5,0.3,2,1.1,2,2.6c-0.1,2.8,0,5.5,0,8.3c0,1.6-0.4,1.9-1.8,1.2c-4.3-2-8.9-2.8-13.6-2.6
		c-1,0-2,0.2-2.9,0.5c-2.2,0.7-2.9,3.2-1.2,4.7c1.2,1.1,2.7,1.9,4.2,2.6c3.6,1.7,7.4,3.2,10.9,5.1c4.9,2.6,7.2,7,6.9,12.5
		c-0.3,5.8-3.2,10-8.3,12.5c-5.2,2.6-10.8,2.8-16.4,2.2c-3.3-0.4-6.4-1.4-9.6-2.1c-1.1-0.3-1.5-1-1.5-2.2c0.1-3.1,0-6.2,0-9.3
		C86.9,89.3,86.9,88.9,87,88.6z"/>
	<path class="st9" d="M46.8,59.5c0-3.1,0-6.2,0-9.3c0-0.7,0.1-1.3,1-1.3c3.7,0.2,7.4-0.1,11,0.6c7,1.3,10.2,8.6,6.9,14.9
		c-1.1,2-2.9,3.3-4.9,4.2c-4.2,1.7-8.6,1.5-13,1.4c-0.9,0-0.8-0.6-0.8-1.2C46.8,65.7,46.8,62.6,46.8,59.5
		C46.8,59.5,46.8,59.5,46.8,59.5z"/>
</g>
</svg>
