<?xml version="1.0" encoding="utf-8"?>
<!-- Generator: Adobe Illustrator 21.1.0, SVG Export Plug-In . SVG Version: 6.00 Build 0)  -->
<svg version="1.1" id="圖層_1" xmlns="http://www.w3.org/2000/svg" xmlns:xlink="http://www.w3.org/1999/xlink" x="0px" y="0px"
	 viewBox="0 0 148.5 144.7" style="enable-background:new 0 0 148.5 144.7;" xml:space="preserve">
<style type="text/css">
	.st0{fill:#D84F28;}
	.st1{fill:#E4642D;}
	.st2{fill:#FFFFFF;}
	.st3{fill:#1C6CAA;}
	.st4{fill:#37A0CE;}
	.st5{fill:#DBBD52;}
	.st6{fill:#F1D155;}
	.st7{fill:url(#SVGID_1_);}
	.st8{fill:#64BDDA;}
	.st9{fill:#05182F;}
	.st10{fill:#4BA2DB;}
	.st11{fill:#2C0404;}
	.st12{fill:#EA9841;}
	.st13{fill:#211430;}
	.st14{fill:#B78BBD;}
	.st15{fill:#E9C44D;}
	.st16{fill:#6A9AC2;}
</style>
<g>
	<radialGradient id="SVGID_1_" cx="74.2282" cy="72.5346" r="72.3568" gradientUnits="userSpaceOnUse">
		<stop  offset="0" style="stop-color:#525252"/>
		<stop  offset="0.1939" style="stop-color:#3E3E3E"/>
		<stop  offset="0.4519" style="stop-color:#2B2B2B"/>
		<stop  offset="0.7175" style="stop-color:#202020"/>
		<stop  offset="1" style="stop-color:#1C1C1C"/>
	</radialGradient>
	<circle class="st7" cx="74.2" cy="72.5" r="72.4"/>
	<g>
		<path class="st8" d="M105,45.2c-0.2,1.8-0.7,5.3-1.2,8.8c-0.2,1.6-0.3,1.6,1.2,2.1c4.6,1.5,9,3.4,12.9,6.3
			c2.2,1.5,4.1,3.3,5.4,5.7c2,3.6,1.7,6.8-1.1,10.6c-2.2,3-5.2,5-8.5,6.6c-2.9,1.4-5.9,2.5-8.8,3.7c-1.3,0.5-1.2,0.4-1,1.8
			c0.5,3.7,1.1,7.5,1.3,11.2c0.1,3.2-0.3,6.5-1.8,9.5c-2.2,4.6-5.9,6.4-10.9,5.5c-4.7-0.9-8.8-3.2-12.6-6.1c-1.7-1.3-3.2-2.6-4.8-4
			c-0.6-0.5-1-0.4-1.5,0.1c-3.5,3.3-7.4,6.1-11.8,8.2c-2.5,1.2-5.2,2.1-8.1,2.1c-3.7,0-6.9-2.1-8.3-5.6c-1.8-4.2-2.2-8.6-1.7-13.1
			c0.3-2.8,0.7-5.5,1.2-8.3c0.1-0.8-0.3-1-0.9-1.2c-2.9-1.2-5.9-2.3-8.8-3.6c-2.9-1.4-5.6-3.2-7.8-5.5c-1.7-1.8-3-3.9-3.4-6.4
			c-0.3-1.9,0.2-3.6,1.1-5.2c2-3.8,5.4-6.2,9.1-8.1c3.1-1.6,6.4-2.8,9.7-4.2c0.8-0.3,1.1-0.6,0.9-1.6c-1.1-4.6-1.5-9.3-1.2-14
			c0.2-3,0.8-6,2.6-8.6c2.2-3.3,5.4-4.4,9.1-3.9c4.5,0.6,8.4,2.7,12,5.2c2.2,1.5,4.2,3.3,6.3,5c0.5,0.4,0.8,0.4,1.2,0
			c3.1-3,6.5-5.5,10.3-7.6c3.1-1.6,6.2-2.9,9.8-2.8c3.6,0.1,6.1,1.8,7.8,4.8C104.6,36,104.9,39.7,105,45.2z M74.2,88.9
			c2.8-0.2,5.5-0.4,8.3-0.5c0.7,0,1.2-0.4,1.6-1c3.1-4.5,5.8-9.3,8.1-14.2c0.2-0.4,0.2-1,0-1.4c-2.3-5-5.1-9.8-8.3-14.3
			c-0.3-0.4-0.9-0.8-1.4-0.9c-1.5-0.2-3-0.4-4.6-0.4c-3.7,0-7.4,0.1-11.1,0.2c-0.9,0-1.8,0-2.4,1c-3,4.5-5.7,9.2-8.1,14.1
			c-0.2,0.5-0.3,1.3,0,1.8c2.3,5,5.1,9.7,8.2,14.2c0.3,0.4,0.8,0.7,1.2,0.7C68.6,88.6,71.4,88.8,74.2,88.9z M120.1,72.7
			c-0.1-0.1-0.1-0.1-0.2-0.2c-0.1-0.3-0.1-0.7-0.2-1c-0.5-1.8-1.7-3.1-3.1-4.2c-3.9-3.3-8.5-5.2-13.2-6.8c-0.9-0.3-1.2-0.1-1.6,0.8
			c-1.2,3.5-2.6,6.9-3.8,10.4c-0.2,0.4-0.2,1-0.1,1.5c1.3,3.6,2.6,7.1,3.9,10.6c0.3,0.9,0.8,1.1,1.6,0.7c1.9-0.8,3.9-1.5,5.8-2.3
			c3.3-1.5,6.4-3.3,8.8-6.1C118.9,75.1,119.4,73.9,120.1,72.7z M48,101.5c0.1,0,0.2,0,0.3,0c0,2.7,0.2,5.3,1.2,7.8
			c1,2.5,2.8,3.6,5.4,3.2c1.6-0.3,3.2-0.8,4.7-1.4c4.1-1.8,7.5-4.6,10.9-7.5c0.5-0.4,0.4-0.7,0-1.1c-2.5-2.9-4.9-5.9-7.3-8.8
			c-0.4-0.4-1-0.8-1.5-0.9c-3.7-0.7-7.4-1.3-11.2-1.9c-0.6-0.1-0.9,0-1,0.7C48.9,94.9,48.4,98.2,48,101.5z M28.6,72.7
			c0.1,0.4,0.2,1.1,0.6,1.6c1,1.3,2.1,2.7,3.3,3.8c3.7,3.1,8.2,4.9,12.8,6.5c0.8,0.3,1-0.1,1.2-0.7c1.3-3.5,2.6-7,3.8-10.5
			c0.2-0.5,0.2-1.2,0-1.7c-1.3-3.5-2.6-7-3.9-10.5c-0.3-0.7-0.6-0.8-1.3-0.6c-5,1.7-9.8,3.7-13.8,7.3C29.9,69.1,28.8,70.6,28.6,72.7
			z M100.5,43.5c-0.1,0-0.2,0-0.3,0c0-0.5,0-1.1,0-1.6c-0.2-2.6-0.5-5.2-2-7.5c-0.8-1.2-1.8-1.8-3.2-1.7c-1.3,0.1-2.7,0.2-4,0.6
			c-5,1.6-8.9,4.8-12.8,8.2c-0.6,0.6-0.4,1,0.1,1.6c2.4,2.8,4.7,5.7,7.2,8.5c0.3,0.4,0.9,0.7,1.4,0.8c3.6,0.7,7.3,1.3,11,1.9
			c0.9,0.2,1.2-0.2,1.3-0.9C99.6,50,100,46.7,100.5,43.5z M48,43.9c0.4,3,0.9,6.2,1.3,9.4c0.1,0.8,0.5,0.9,1.3,0.8
			c3.7-0.7,7.4-1.3,11.2-2c0.4-0.1,0.9-0.3,1.1-0.6c2.5-2.9,4.9-5.9,7.3-8.9c0.5-0.5,0.4-0.8-0.1-1.3c-2.8-2.7-5.9-5-9.3-6.7
			c-1.9-0.9-3.9-1.5-6-2c-1.8-0.4-3.5,0-4.6,1.7c-0.6,0.9-1.1,1.9-1.3,3C48.5,39.4,48.3,41.5,48,43.9z M100.5,101.1
			c-0.4-2.9-0.8-6.1-1.3-9.2c-0.1-0.9-0.5-1.1-1.4-0.9c-3.4,0.7-6.8,1.3-10.3,1.8c-1,0.2-1.7,0.5-2.4,1.3c-2.2,2.8-4.5,5.5-6.9,8.2
			c-0.7,0.8-0.2,1.2,0.3,1.6c1.7,1.4,3.4,2.8,5.1,4c2.6,1.9,5.3,3.5,8.5,4.2c4.4,0.9,6.2,0.1,7.4-4.5
			C100.1,105.6,100.2,103.5,100.5,101.1z M68.9,51.5c3.6,0,7,0,10.4,0c-0.2-0.3-0.2-0.6-0.4-0.7c-1.4-1.6-2.8-3.2-4.2-4.9
			c-0.4-0.5-0.8-0.4-1.2,0.1c-1.2,1.3-2.4,2.7-3.6,4.1C69.7,50.4,69.4,50.9,68.9,51.5z M68.7,93.4c1.9,2.1,3.6,4,5.3,5.8
			c0.1,0.1,0.7,0,0.9-0.1c0.7-0.7,1.4-1.4,2-2.2c0.9-1.1,1.8-2.2,2.8-3.5C76,93.4,72.5,93.4,68.7,93.4z M95.1,78.2
			c-1.9,3.2-3.5,6.2-5.2,9.2c0.2,0.1,0.3,0.2,0.4,0.2c2.3-0.4,4.6-0.8,6.9-1.3c0.2,0,0.4-0.5,0.4-0.7C96.8,83.2,96,80.8,95.1,78.2z
			 M58.6,57.7c-0.3-0.1-0.5-0.2-0.6-0.1c-2.2,0.4-4.4,0.8-6.6,1.3c-0.6,0.1-0.6,0.6-0.4,1c0.7,2,1.4,4,2.1,6
			c0.1,0.3,0.3,0.5,0.5,0.8C55.2,63.6,56.9,60.7,58.6,57.7z M53.5,78.6c-0.1,0.2-0.3,0.3-0.3,0.4c-0.7,2.2-1.5,4.3-2.2,6.5
			c-0.2,0.7,0.2,0.8,0.7,0.8c2.1,0.4,4.3,0.9,6.4,1.3c0.2,0,0.4,0,0.6-0.1C56.9,84.5,55.2,81.5,53.5,78.6z M90.1,57.4
			c-0.1,0.1-0.2,0.2-0.2,0.3c1.7,2.9,3.4,5.8,5,8.7c0.1,0,0.2,0,0.3,0c0.8-2.3,1.6-4.6,2.3-7c0.1-0.2-0.3-0.7-0.6-0.7
			c-1.1-0.3-2.1-0.5-3.2-0.7C92.5,57.9,91.3,57.6,90.1,57.4z"/>
		<path class="st8" d="M74.2,81.9c-5.2,0-9.4-4.1-9.4-9.3c0-5.2,4.3-9.5,9.4-9.5c5.1,0,9.4,4.4,9.4,9.5
			C83.6,77.8,79.2,82.1,74.2,81.9z"/>
	</g>
</g>
</svg>
